<?xml version="1.0" standalone="no"?>
<!DOCTYPE svg PUBLIC "-//W3C//DTD SVG 20010904//EN"
 "http://www.w3.org/TR/2001/REC-SVG-20010904/DTD/svg10.dtd">
<svg version="1.0" xmlns="http://www.w3.org/2000/svg"
 width="700.000000pt" height="700.000000pt" viewBox="0 0 700.000000 700.000000"
 preserveAspectRatio="xMidYMid meet">
<metadata>
Created by potrace 1.14, written by Peter Selinger 2001-2017
</metadata>
<g transform="translate(0.000000,700.000000) scale(0.100000,-0.100000)"
fill="#000000" stroke="none">
<path d="M3300 6399 c-157 -26 -316 -88 -440 -172 -54 -36 -164 -131 -201
-172 -15 -16 -38 -42 -52 -57 -100 -107 -215 -331 -242 -469 -19 -95 -26 -143
-29 -202 -2 -37 -5 -70 -8 -72 -2 -3 -151 -5 -330 -5 -300 -1 -333 -3 -405
-22 -150 -41 -294 -161 -367 -306 -63 -125 -59 2 -59 -1997 0 -1405 3 -1834
12 -1880 44 -214 236 -405 451 -448 53 -11 412 -13 1895 -12 1780 2 1832 2
1890 21 103 33 167 73 245 153 85 86 129 162 155 266 17 65 18 186 19 1845 1
976 -2 1809 -5 1850 -20 224 -175 422 -392 501 -58 21 -80 23 -377 26 -173 2
-333 4 -354 6 l-40 2 -2 58 c-1 32 -5 77 -9 100 -3 23 -8 56 -11 74 -11 84
-70 237 -133 348 -69 121 -224 288 -351 377 -106 75 -279 153 -381 173 -112
22 -159 27 -259 29 -74 2 -153 -4 -220 -15z m332 -580 c24 -5 50 -12 58 -16 8
-3 18 -7 21 -7 3 -1 26 -11 51 -24 117 -60 234 -187 278 -302 23 -57 51 -205
42 -215 -3 -3 -266 -5 -584 -5 -543 0 -578 1 -579 18 -2 33 2 68 17 126 49
201 214 367 415 420 62 16 217 19 281 5z m-1301 -1168 c0 -9 2 -158 3 -331 l2
-315 26 -51 c30 -58 91 -116 145 -140 53 -23 166 -26 221 -5 64 23 135 90 163
153 22 52 23 61 24 370 1 175 5 321 9 325 9 9 1156 12 1157 4 0 -4 2 -152 3
-331 l2 -325 27 -51 c29 -57 92 -117 147 -141 44 -19 149 -25 192 -12 84 26
146 78 186 154 l26 50 1 322 c1 178 5 326 9 330 4 5 136 8 292 9 l284 0 -2
-1750 -3 -1750 -1735 -1 c-954 0 -1741 1 -1747 3 -10 3 -13 362 -13 1751 l0
1747 290 0 c258 1 290 -1 291 -15z"/>
</g>
</svg>
